<svg width="20" height="14" viewBox="0 0 20 14" fill="none" xmlns="http://www.w3.org/2000/svg">
<path d="M19.4199 3.15997C19.4199 3.15997 19.2399 1.83997 18.6399 1.23997C17.9199 0.459971 17.0799 0.459971 16.7199 0.399971C14.0199 0.219971 9.9999 0.219971 9.9999 0.219971C9.9999 0.219971 5.9799 0.219971 3.2799 0.399971C2.9199 0.459971 2.0799 0.459971 1.3599 1.23997C0.759902 1.83997 0.579902 3.15997 0.579902 3.15997C0.579902 3.15997 0.399902 4.71997 0.399902 6.27997L0.399902 7.71997C0.399902 9.27997 0.579902 10.84 0.579902 10.84C0.579902 10.84 0.759902 12.16 1.3599 12.76C2.0799 13.54 3.0399 13.48 3.4599 13.6C5.0199 13.72 9.9999 13.78 9.9999 13.78C9.9999 13.78 14.0199 13.78 16.7199 13.6C17.0799 13.54 17.9199 13.54 18.6399 12.76C19.2399 12.16 19.4199 10.84 19.4199 10.84C19.4199 10.84 19.5999 9.27997 19.5999 7.71997L19.5999 6.27997C19.5999 4.71997 19.4199 3.15997 19.4199 3.15997ZM8.0199 9.51997L8.0199 4.11997L13.1799 6.81997L8.0199 9.51997Z" fill="#E82E2E"/>
</svg>
