<svg width="20" height="20" viewBox="0 0 20 20" fill="none" xmlns="http://www.w3.org/2000/svg">
<path d="M19.6001 10C19.5993 4.89328 15.6007 0.680997 10.5009 0.414585C5.40114 0.148173 0.985393 3.92089 0.452495 8.99973C-0.0804037 14.0786 3.45609 18.6857 8.50008 19.4836L8.50008 12.775H6.06288V10H8.50008V7.885C8.50008 5.479 9.93348 4.15 12.1259 4.15C12.8459 4.15999 13.5642 4.22255 14.2751 4.3372V6.7L13.0643 6.7C12.6463 6.64449 12.2258 6.78208 11.9215 7.0739C11.6172 7.36572 11.4621 7.78009 11.5001 8.2V10H14.1629L13.7369 12.775H11.5001L11.5001 19.4836C16.1655 18.7456 19.6008 14.7234 19.6001 10Z" fill="#2E6FE8"/>
</svg>
