<svg width="18" height="18" viewBox="0 0 18 18" fill="none" xmlns="http://www.w3.org/2000/svg">
<path d="M16.8 0L1.2 0C0.537258 0 0 0.537258 0 1.2L0 16.8C0 17.4627 0.537258 18 1.2 18L16.8 18C17.4627 18 18 17.4627 18 16.8L18 1.2C18 0.537258 17.4627 0 16.8 0ZM5.3322 15.3564L2.6244 15.3564L2.6244 6.75H5.3322L5.3322 15.3564ZM3.978 5.5686C3.10878 5.56595 2.40604 4.85963 2.4078 3.99041C2.40957 3.12119 3.11517 2.41773 3.9844 2.41861C4.85362 2.41949 5.5578 3.12438 5.5578 3.9936C5.55796 4.4122 5.39142 4.81363 5.09497 5.10917C4.79853 5.40471 4.3966 5.57004 3.978 5.5686ZM15.3726 15.3564H12.72V11.1936C12.72 10.1814 12.72 8.9436 11.31 8.9436C9.9 8.9436 9.7302 10.0128 9.7302 11.1372V15.4128H7.08L7.08 6.75L9.5616 6.75V7.9314H9.618C10.1395 7.02974 11.1156 6.48898 12.1566 6.525C14.8644 6.525 15.372 8.325 15.372 10.6314L15.3726 15.3564Z" fill="#2148A5"/>
</svg>
