<svg width="20" height="16" viewBox="0 0 20 16" fill="none" xmlns="http://www.w3.org/2000/svg">
<path d="M19.6001 2.06001C18.8801 2.36001 18.1601 2.60001 17.3201 2.66001C18.1601 2.18001 18.7601 1.40001 19.0601 0.500012C18.2801 0.980012 17.4401 1.28001 16.5401 1.46001C15.8201 0.680012 14.8001 0.200012 13.7201 0.200012C11.5601 0.200012 9.76009 1.94001 9.76009 4.16001C9.76009 4.46001 9.82009 4.76001 9.88009 5.06001C6.58009 4.88001 3.70009 3.32001 1.72009 0.920012C1.36009 1.52001 1.18009 2.18001 1.18009 2.90001C1.18009 4.28001 1.90009 5.48001 2.92009 6.20001C2.26009 6.20001 1.66009 6.02001 1.12009 5.72001V5.78001C1.12009 7.70001 2.50009 9.26001 4.30009 9.62001C3.94009 9.68001 3.64009 9.74001 3.28009 9.74001C3.04009 9.74001 2.80009 9.74001 2.56009 9.68001C3.04009 11.24 4.54009 12.38 6.22009 12.44C4.90009 13.52 3.16009 14.12 1.30009 14.12C1.00009 14.12 0.640088 14.12 0.340088 14.06C2.14009 15.14 4.24009 15.8 6.46009 15.8C13.7201 15.8 17.6801 9.80001 17.6801 4.58001C17.6801 4.40001 17.6801 4.22001 17.6801 4.10001C18.4001 3.50001 19.0601 2.84001 19.6001 2.06001Z" fill="#2EBAE8"/>
</svg>
