<svg width="42" height="44" viewBox="0 0 42 44" fill="none" xmlns="http://www.w3.org/2000/svg">
<path fill-rule="evenodd" clip-rule="evenodd" d="M21.0001 5.59998C12.4949 5.59998 5.6001 12.4948 5.6001 21H0.100098C0.100098 9.45724 9.45736 0.0999756 21.0001 0.0999756C32.5428 0.0999756 41.9001 9.45724 41.9001 21H36.4001C36.4001 12.4948 29.5053 5.59998 21.0001 5.59998Z" fill="#636AE8"/>
<path d="M12.0171 27.279C11.1149 25.3536 9.46649 23.5499 7.34019 23.5499H0.190186C0.190186 34.4852 9.05492 43.3499 19.9902 43.3499V36.1999C19.9902 34.0736 18.1865 32.4252 16.2611 31.5231C14.3975 30.6499 12.8902 29.1427 12.0171 27.279Z" fill="#E8618C"/>
<path d="M29.9831 27.279C30.8852 25.3536 32.5337 23.5499 34.66 23.5499H41.81C41.81 34.4852 32.9453 43.3499 22.01 43.3499V36.1999C22.01 34.0736 23.8137 32.4252 25.7391 31.5231C27.6027 30.6499 29.11 29.1427 29.9831 27.279Z" fill="#22CCB2"/>
<path d="M21 26.41C24.0376 26.41 26.5 23.9476 26.5 20.91C26.5 17.8725 24.0376 15.41 21 15.41C17.9624 15.41 15.5 17.8725 15.5 20.91C15.5 23.9476 17.9624 26.41 21 26.41Z" fill="#7F55E0"/>
</svg>
