<svg width="34" height="34" viewBox="0 0 34 34" fill="none" xmlns="http://www.w3.org/2000/svg">
<path d="M21.666 0.625488H6.60927C3.29885 0.625488 0.615234 3.3091 0.615234 6.61952C0.615234 8.16592 1.21289 9.6525 2.28331 10.7686L3.55969 12.0994C5.49633 14.1186 8.72471 14.1186 10.6613 12.0994L21.666 0.625488Z" fill="#636AE8"/>
<path d="M12.334 33.3743H27.3907C30.7011 33.3743 33.3847 30.6907 33.3847 27.3802C33.3847 25.8339 32.7871 24.3473 31.7167 23.2312L30.4403 21.9004C28.5036 19.8812 25.2753 19.8812 23.3386 21.9004L12.334 33.3743Z" fill="#636AE8"/>
<path d="M33.3787 21.666V6.84338C33.3787 3.40369 30.5903 0.615234 27.1506 0.615234C25.5779 0.615234 24.0634 1.21021 22.9113 2.28071L21.5923 3.50619C19.4975 5.45254 19.4975 8.76854 21.5924 10.7148L33.3787 21.666Z" fill="#22CCB2"/>
<path d="M0.625492 12.334L0.625488 27.3907C0.625488 30.7011 3.3091 33.3847 6.61952 33.3847C8.16592 33.3847 9.6525 32.7871 10.7686 31.7167L12.0994 30.4403C14.1186 28.5036 14.1186 25.2753 12.0994 23.3386L0.625492 12.334Z" fill="#22CCB2"/>
<path d="M15.75 11.747L11.2572 16.2399C10.7767 16.7204 10.7767 17.4994 11.2572 17.9799L15.75 22.4727C16.2305 22.9532 17.0095 22.9532 17.49 22.4727L21.9829 17.9799C22.4633 17.4994 22.4633 16.7204 21.9829 16.2399L17.49 11.747C17.0095 11.2666 16.2305 11.2666 15.75 11.747Z" fill="#E8618C"/>
</svg>
